<svg viewBox="0 0 69 68" fill="none" xmlns="http://www.w3.org/2000/svg">
<g clip-path="url(#clip0_84_61)">
<path d="M5.04952 6.83506V14.5711C5.04952 16.3411 5.86752 17.4311 7.39152 17.4311C7.88152 17.4311 8.15352 17.3211 8.53552 17.0771L8.67152 17.1591L9.29752 18.4671L9.21552 18.6031C8.61552 19.0111 7.93552 19.1491 7.25352 19.1491C4.74752 19.1491 3.14152 17.2971 3.14152 14.6011V6.83506H0.853516V5.20106H3.14152V1.11506L4.93952 0.789062L5.04952 0.871063V5.20106H9.32552V6.83506H5.04952Z" fill="white"/>
<path d="M10.0893 7.001L13.0033 15.199L16.2993 5.203H17.9873L21.2833 15.199L24.8253 5.203H26.7313L26.7853 5.311L21.6653 18.821H20.7673L17.1453 7.979L13.5233 18.821H12.6253L8.64734 8.307C8.12934 6.945 7.82934 6.591 7.44934 6.537C7.23134 6.509 6.98534 6.591 6.79534 6.727L6.65934 6.673L6.27734 5.365L6.35934 5.229C6.54934 5.093 6.98534 4.875 7.61134 4.875C8.86534 4.875 9.62734 5.693 10.0913 6.999L10.0893 7.001Z" fill="white"/>
<path d="M26.3786 12.583C26.6246 15.715 29.0206 17.405 31.6626 17.405C33.3786 17.405 35.3946 16.697 36.4846 15.307H36.6206L37.8466 16.343V16.479C36.4846 18.305 33.9246 19.149 31.7186 19.149C27.9046 19.149 24.3926 16.589 24.3926 12.067C24.3926 7.953 27.2786 4.875 31.3646 4.875C35.4506 4.875 38.2286 7.979 38.2286 11.739C38.2286 12.121 38.2006 12.393 38.1746 12.583H26.3806H26.3786ZM26.4066 10.949H36.2406C35.9146 8.061 33.9526 6.619 31.4206 6.619C28.7506 6.619 26.7626 8.199 26.4086 10.949H26.4066Z" fill="white"/>
<path d="M49.9162 10.513V18.821H47.9822V10.703C47.9822 8.197 46.4562 6.591 44.0322 6.591C41.6082 6.591 39.8642 8.197 39.8642 10.703V18.821H37.9302V7.871C37.9302 7.081 37.8482 6.537 37.3042 6.537C37.0862 6.537 36.9502 6.619 36.8422 6.727L36.7062 6.673L36.3242 5.365L36.4062 5.229C36.5962 5.065 37.0322 4.875 37.6602 4.875C38.9942 4.875 39.6762 5.747 39.7582 6.919C40.7662 5.639 42.3462 4.875 44.3342 4.875C47.7942 4.875 49.9182 7.217 49.9182 10.513H49.9162Z" fill="white"/>
<path d="M52.6413 6.83506V14.5711C52.6413 16.3411 53.4593 17.4311 54.9833 17.4311C55.4733 17.4311 55.7473 17.3211 56.1273 17.0771L56.2633 17.1591L56.8893 18.4671L56.8073 18.6031C56.2073 19.0111 55.5273 19.1491 54.8453 19.1491C52.3393 19.1491 50.7333 17.2971 50.7333 14.6011V6.83506H48.4453V5.20106H50.7333V1.11506L52.5313 0.789062L52.6413 0.871063V5.20106H56.9173V6.83506H52.6413Z" fill="white"/>
<path d="M68.2786 5.311L61.8226 19.721C60.7886 22.063 59.6726 22.907 57.7926 22.907C56.9486 22.907 56.4046 22.743 55.9666 22.445L55.9126 22.335L56.4846 21.027L56.6486 20.973C56.9486 21.191 57.3026 21.299 57.7386 21.299C58.6646 21.299 59.2906 20.809 59.9986 19.229L60.6246 17.867L56.3486 8.307C55.7766 7.027 55.5586 6.591 55.1486 6.537C54.9306 6.509 54.6846 6.591 54.4946 6.727L54.3586 6.673L53.9766 5.365L54.0586 5.229C54.2486 5.065 54.6586 4.875 55.2846 4.875C56.5366 4.875 57.2186 5.611 57.8446 6.999L61.6846 15.579L66.3166 5.201H68.2226L68.2766 5.309L68.2786 5.311Z" fill="white"/>
<path d="M9.05342 31.1045V38.8405C9.05342 40.6105 9.87142 41.7005 11.3954 41.7005C11.8854 41.7005 12.1574 41.5905 12.5394 41.3465L12.6754 41.4285L13.3014 42.7365L13.2194 42.8725C12.6194 43.2805 11.9394 43.4185 11.2574 43.4185C8.75142 43.4185 7.14542 41.5665 7.14542 38.8705V31.1085H4.85742V29.4745H7.14542V25.3885L8.94342 25.0625L9.05342 25.1445V29.4745H13.3294V31.1085H9.05342V31.1045Z" fill="white"/>
<path d="M23.8452 31.2685L26.7592 39.4665L30.0552 29.4705H31.7432L35.0392 39.4665L38.5812 29.4705H40.4872L40.5412 29.5805L35.4212 43.0905H34.5232L30.9012 32.2485L27.2792 43.0905H26.3812L22.4032 32.5765C21.8852 31.2145 21.5852 30.8605 21.2052 30.8065C20.9872 30.7785 20.7412 30.8605 20.5512 30.9965L20.4152 30.9425L20.0332 29.6345L20.1152 29.4985C20.3052 29.3625 20.7412 29.1445 21.3672 29.1445C22.6212 29.1445 23.3832 29.9625 23.8472 31.2685H23.8452Z" fill="white"/>
<path d="M62.9653 36.2805C62.9653 40.3125 59.8873 43.4165 55.7473 43.4165C51.6073 43.4165 48.5293 40.3105 48.5293 36.2805C48.5293 32.2505 51.6073 29.1445 55.7473 29.1445C59.8873 29.1445 62.9653 32.2485 62.9653 36.2805ZM61.0033 36.2805C61.0033 33.1745 58.8233 30.8865 55.7453 30.8865C52.6673 30.8865 50.4873 33.1745 50.4873 36.2805C50.4873 39.3865 52.6673 41.6745 55.7453 41.6745C58.8233 41.6745 61.0033 39.3865 61.0033 36.2805Z" fill="white"/>
<path d="M24.9611 67.1942L24.8791 67.3302C24.6891 67.4942 24.2531 67.6842 23.6531 67.6842C22.3451 67.6842 21.6651 66.7862 21.5551 65.6402C20.3571 66.9742 18.5051 67.6842 16.6531 67.6842C13.9571 67.6842 11.3691 66.1862 11.3691 63.1902C11.3691 60.1942 14.0651 58.7222 17.4151 58.7222C19.0771 58.7222 20.3831 59.0502 21.4471 59.5122V58.5582C21.4471 56.1622 19.2691 55.1542 17.1971 55.1542C15.5091 55.1542 14.2551 55.8342 13.1111 56.9242H12.9751L11.7771 55.8622V55.7262C13.2751 54.2282 15.0731 53.4102 17.3331 53.4102C20.0851 53.4102 23.3531 54.6362 23.3531 58.6122V64.6862C23.3531 65.4762 23.4351 66.0202 23.9791 66.0202C24.1971 66.0202 24.3331 65.9382 24.4431 65.8302L24.5791 65.8842L24.9611 67.1922V67.1942ZM21.4471 62.2082V61.1182C20.6031 60.7922 19.1591 60.3562 17.5531 60.3562C14.9931 60.3562 13.3591 61.4462 13.3591 63.2162C13.3591 64.9862 15.1291 65.9402 16.9531 65.9402C19.1331 65.9402 21.4471 64.6322 21.4471 62.2082Z" fill="white"/>
<path d="M56.2353 59.0521V67.3601H54.3013V59.2421C54.3013 56.7361 52.9133 55.1301 50.5693 55.1301C48.2253 55.1301 46.4573 56.7361 46.4573 59.2421V67.3601H44.4953V59.2421C44.4953 56.7361 43.1073 55.1301 40.7633 55.1301C38.4193 55.1301 36.6513 56.7361 36.6513 59.2421V67.3601H34.7173V56.4101C34.7173 55.6201 34.6353 55.0761 34.0913 55.0761C33.8733 55.0761 33.7373 55.1581 33.6293 55.2661L33.4933 55.2121L33.1113 53.9041L33.1933 53.7681C33.3833 53.6041 33.8193 53.4141 34.4473 53.4141C35.7813 53.4141 36.4633 54.2861 36.5453 55.5121C37.5253 54.2041 39.1053 53.4141 41.0933 53.4141C43.4093 53.4141 45.0693 54.5041 45.8873 56.2461C46.7853 54.5021 48.5833 53.4141 50.8993 53.4141C54.2773 53.4141 56.2373 55.7561 56.2373 59.0521H56.2353Z" fill="white"/>
<path d="M59.5531 55.4505C59.5291 55.4645 59.4871 55.4745 59.4491 55.4745C59.2711 55.4745 59.1851 55.2625 59.0911 55.0105C59.0491 54.8965 58.9791 54.7245 58.8831 54.6865C59.2791 54.6305 59.4851 54.4005 59.4851 54.0485C59.4851 53.6385 59.2091 53.3945 58.6871 53.3945H57.8711V55.6585H58.1211V54.7005H58.5431C58.6611 54.7005 58.7551 54.8785 58.8071 55.0105C58.9291 55.3165 59.0411 55.7005 59.4071 55.7005C59.4791 55.7005 59.5491 55.6925 59.6191 55.6525L59.6291 55.6345L59.5691 55.4565L59.5511 55.4485L59.5531 55.4505ZM58.7531 54.4865H58.1231V53.6185H58.7531C59.0571 53.6185 59.2271 53.7985 59.2271 54.0505C59.2271 54.3025 59.0571 54.4865 58.7531 54.4865Z" fill="white"/>
<path d="M58.6415 52.25C57.4255 52.25 56.4355 53.24 56.4355 54.456C56.4355 55.672 57.4255 56.662 58.6415 56.662C59.8575 56.662 60.8475 55.672 60.8475 54.456C60.8475 53.24 59.8575 52.25 58.6415 52.25ZM58.6415 56.412C57.5635 56.412 56.6855 55.534 56.6855 54.456C56.6855 53.378 57.5635 52.5 58.6415 52.5C59.7195 52.5 60.5975 53.378 60.5975 54.456C60.5975 55.534 59.7195 56.412 58.6415 56.412Z" fill="white"/>
</g>
<defs>
<clipPath id="clip0_84_61">
<rect width="67.426" height="66.896" fill="white" transform="translate(0.851562 0.792969)"/>
</clipPath>
</defs>
</svg>
