<svg width="573" height="220" viewBox="0 0 573 220" fill="none" xmlns="http://www.w3.org/2000/svg">
<path d="M73.2742 101.284L72.8242 102.034C71.7742 102.934 69.5492 103.959 65.8242 103.959C58.6742 103.959 55.2742 99.359 54.6742 93.109C49.1742 99.809 40.6992 103.959 30.1242 103.959C12.4242 103.959 0.824219 92.659 0.824219 74.659V27.834H11.2242V73.634C11.2242 87.309 19.5492 94.609 32.0492 94.609C44.5492 94.609 54.0492 85.834 54.0492 72.159V27.834H64.4492V87.609C64.4492 91.909 64.8992 94.884 67.8742 94.884C69.0742 94.884 69.7992 94.434 70.3992 93.834L71.1492 94.134L73.2242 101.284H73.2742Z" fill="black"/>
<path d="M155.522 56.8359V102.186H144.972V57.8609C144.972 44.1859 136.647 35.4109 123.397 35.4109C110.147 35.4109 100.647 44.1859 100.647 57.8609V102.186H90.0973V42.4109C90.0973 38.1109 89.6473 35.1359 86.6723 35.1359C85.4723 35.1359 84.7473 35.5859 84.1473 36.1859L83.3973 35.8859L81.3223 28.7609L81.7723 28.0109C82.8223 27.1109 85.1973 26.0859 88.6223 26.0859C95.8973 26.0859 99.6223 30.8359 100.072 37.2359C105.572 30.2359 114.197 26.0859 125.047 26.0859C143.922 26.0859 155.522 38.8859 155.522 56.8609V56.8359Z" fill="black"/>
<path d="M252.074 65.0102C252.074 86.5852 237.049 103.96 213.849 103.96C202.699 103.96 193.474 99.2102 187.074 92.2102V102.185H176.674V2.68516L186.474 0.910156L187.074 1.36016V37.7852C193.474 30.7852 202.674 26.0352 213.849 26.0352C237.049 26.0352 252.074 43.4352 252.074 64.9852V65.0102ZM241.374 65.0102C241.224 48.9602 230.374 35.5602 213.874 35.5602C198.399 35.5602 185.774 45.3852 185.774 65.0102C185.774 84.6352 198.424 94.4602 213.874 94.4602C230.374 94.4602 241.374 81.2352 241.374 65.0102Z" fill="black"/>
<path d="M335.073 65.0125C335.073 87.0125 318.273 103.962 295.673 103.962C273.073 103.962 256.273 87.0125 256.273 65.0125C256.273 43.0125 273.073 26.0625 295.673 26.0625C318.273 26.0625 335.073 43.0125 335.073 65.0125ZM324.373 65.0125C324.373 48.0625 312.473 35.5625 295.673 35.5625C278.873 35.5625 266.973 48.0625 266.973 65.0125C266.973 81.9625 278.873 94.4625 295.673 94.4625C312.473 94.4625 324.373 81.9625 324.373 65.0125Z" fill="black"/>
<path d="M386.126 28.8609L382.551 36.8859L381.801 37.1859C379.576 35.7109 377.051 35.4109 374.076 35.4109C363.226 35.4109 356.376 44.1859 356.376 57.8609V102.186H345.976V42.4109C345.976 38.1109 345.526 35.1359 342.551 35.1359C341.351 35.1359 340.626 35.5859 340.026 36.1859L339.276 35.8859L337.201 28.7609L337.651 28.0109C338.701 27.1109 340.926 26.0859 344.626 26.0859C351.326 26.0859 355.176 30.3859 355.776 36.4859C360.101 29.9359 366.776 26.0859 375.701 26.0859C379.426 26.0859 382.676 26.8359 385.676 28.1609L386.126 28.9109V28.8609Z" fill="black"/>
<path d="M385.977 10.4336C385.977 5.68359 389.852 1.80859 394.602 1.80859C399.352 1.80859 403.227 5.68359 403.227 10.4336C403.227 15.1836 399.352 19.0586 394.602 19.0586C389.852 19.0586 385.977 15.1836 385.977 10.4336ZM399.802 102.184V27.8336H389.402V102.184H399.802Z" fill="black"/>
<path d="M481.298 56.8359V102.186H470.748V57.8609C470.748 44.1859 462.423 35.4109 449.173 35.4109C435.923 35.4109 426.423 44.1859 426.423 57.8609V102.186H415.873V42.4109C415.873 38.1109 415.423 35.1359 412.448 35.1359C411.248 35.1359 410.523 35.5859 409.923 36.1859L409.173 35.8859L407.098 28.7609L407.548 28.0109C408.598 27.1109 410.973 26.0859 414.398 26.0859C421.673 26.0859 425.398 30.8359 425.848 37.2359C431.348 30.2359 439.973 26.0859 450.823 26.0859C469.723 26.0859 481.323 38.8859 481.323 56.8609L481.298 56.8359Z" fill="black"/>
<path d="M572.05 28.7094L569.975 35.8344L569.225 36.1344C568.625 35.5344 567.875 35.0844 566.7 35.0844C563.725 35.0844 563.275 38.0594 563.275 42.3594V90.1094C563.275 114.209 545.875 124.459 527 124.459C512.425 124.459 500.525 118.359 493.4 108.384V107.634L499.05 101.534H499.8C505.6 109.559 514.525 115.059 527.025 115.059C541.9 115.059 552.9 107.184 552.9 90.3844V85.1844C546.8 92.0344 537.575 96.1844 526.575 96.1844C505.3 96.1844 490 80.8594 490 61.0844C490 41.3094 505.325 25.9844 526.725 25.9844C538.025 25.9844 547.25 30.2844 553.35 37.4344C553.8 30.7344 557.525 25.9844 564.8 25.9844C568.225 25.9844 570.6 27.0344 571.65 27.9094L572.1 28.6594L572.05 28.7094ZM553.3 61.2844C553.3 46.2594 542.45 35.5594 526.825 35.5594C511.2 35.5594 500.65 46.2594 500.65 61.1344C500.65 76.0094 511.05 86.7094 526.975 86.7094C542.9 86.7094 553.3 76.0094 553.3 61.2844Z" fill="black"/>
<path d="M179.173 180.885C179.173 202.46 164.148 219.835 140.948 219.835C129.798 219.835 120.573 215.085 114.173 208.085V218.06H103.773V118.56L113.598 116.785L114.198 117.235V153.66C120.598 146.66 129.823 141.91 140.973 141.91C164.173 141.91 179.198 159.31 179.198 180.86L179.173 180.885ZM168.473 180.885C168.323 164.835 157.473 151.435 140.973 151.435C125.498 151.435 112.873 161.26 112.873 180.885C112.873 200.51 125.523 210.335 140.973 210.335C157.473 210.335 168.473 197.11 168.473 180.885Z" fill="black"/>
<path d="M316.202 208.836V218.061H249.727V210.636C284.977 177.036 301.327 162.611 301.327 147.286C301.327 136.736 293.452 129.286 281.552 129.286C271.577 129.286 264.902 134.336 259.102 141.186H258.352L252.102 135.686V134.936C259.102 126.611 268.002 119.611 281.852 119.611C300.152 119.611 312.177 131.661 312.177 147.136C312.177 163.936 298.052 178.061 266.077 208.861H316.202V208.836Z" fill="black"/>
<path d="M468.076 180.885C468.076 202.46 453.051 219.835 429.851 219.835C418.701 219.835 409.476 215.085 403.076 208.085V218.06H392.676V118.56L402.476 116.785L403.076 117.235V153.66C409.476 146.66 418.676 141.91 429.851 141.91C453.051 141.91 468.076 159.31 468.076 180.86V180.885ZM457.351 180.885C457.201 164.835 446.351 151.435 429.851 151.435C414.376 151.435 401.751 161.26 401.751 180.885C401.751 200.51 414.401 210.335 429.851 210.335C446.351 210.335 457.351 197.11 457.351 180.885Z" fill="black"/>
<path d="M484.847 150.186C484.672 150.286 484.372 150.361 484.097 150.361C482.822 150.361 482.197 148.836 481.522 147.036C481.222 146.211 480.722 144.986 480.022 144.711C482.872 144.311 484.322 142.661 484.322 140.161C484.322 137.211 482.347 135.486 478.622 135.486H472.797V151.686H474.597V144.836H477.622C478.472 144.836 479.147 146.111 479.522 147.061C480.397 149.261 481.197 151.986 483.797 151.986C484.322 151.986 484.822 151.936 485.322 151.636L485.397 151.511L484.972 150.236L484.847 150.186ZM479.097 143.286H474.597V137.086H479.097C481.272 137.086 482.497 138.386 482.497 140.186C482.497 141.986 481.272 143.311 479.097 143.311V143.286Z" fill="black"/>
<path d="M478.322 127.312C469.622 127.312 462.547 134.387 462.547 143.087C462.547 151.787 469.622 158.862 478.322 158.862C487.022 158.862 494.097 151.787 494.097 143.087C494.097 134.387 487.022 127.312 478.322 127.312ZM478.322 157.062C470.597 157.062 464.322 150.787 464.322 143.062C464.322 135.337 470.597 129.062 478.322 129.062C486.047 129.062 492.322 135.337 492.322 143.062C492.322 150.787 486.047 157.062 478.322 157.062Z" fill="black"/>
</svg>
