<svg width="1350" height="1350" viewBox="0 0 1350 1350" fill="none" xmlns="http://www.w3.org/2000/svg">
<rect width="1350" height="1350" fill="black"/>
<path d="M285.72 450.562C292.301 450.562 297.907 451.619 302.538 453.731C307.17 455.844 310.704 458.891 313.141 462.872C315.579 466.853 316.798 471.687 316.798 477.375C316.798 483.062 315.579 487.897 313.141 491.878C310.704 495.859 307.17 498.906 302.538 501.019C297.907 503.131 292.301 504.187 285.72 504.187H269.754V531H248.791V450.562H285.72ZM282.429 488.466C286.816 488.466 290.107 487.572 292.301 485.784C294.576 483.916 295.713 481.112 295.713 477.375C295.713 473.637 294.576 470.875 292.301 469.087C290.107 467.219 286.816 466.284 282.429 466.284H269.754V488.466H282.429ZM330.2 531V450.562H392.844V466.772H351.163V483.103H384.313V498.337H351.163V514.791H394.428V531H330.2ZM442.447 449.344C450.572 449.344 457.559 451.009 463.409 454.341C469.341 457.591 473.891 462.303 477.059 468.478C480.228 474.653 481.813 482.087 481.813 490.781C481.813 499.475 480.228 506.909 477.059 513.084C473.891 519.259 469.341 524.012 463.409 527.344C457.559 530.594 450.572 532.219 442.447 532.219C434.322 532.219 427.294 530.594 421.363 527.344C415.431 524.012 410.881 519.259 407.713 513.084C404.544 506.909 402.959 499.475 402.959 490.781C402.959 482.087 404.544 474.653 407.713 468.478C410.881 462.303 415.431 457.591 421.363 454.341C427.294 451.009 434.322 449.344 442.447 449.344ZM442.447 465.797C438.547 465.797 435.256 466.731 432.575 468.6C429.894 470.469 427.863 473.272 426.481 477.009C425.1 480.666 424.409 485.256 424.409 490.781C424.409 496.225 425.1 500.816 426.481 504.553C427.863 508.291 429.894 511.094 432.575 512.962C435.256 514.831 438.547 515.766 442.447 515.766C446.347 515.766 449.597 514.831 452.197 512.962C454.878 511.094 456.909 508.291 458.291 504.553C459.672 500.816 460.363 496.225 460.363 490.781C460.363 485.256 459.672 480.666 458.291 477.009C456.909 473.272 454.878 470.469 452.197 468.6C449.597 466.731 446.347 465.797 442.447 465.797ZM533.159 450.562C539.74 450.562 545.347 451.619 549.978 453.731C554.609 455.844 558.144 458.891 560.581 462.872C563.019 466.853 564.237 471.687 564.237 477.375C564.237 483.062 563.019 487.897 560.581 491.878C558.144 495.859 554.609 498.906 549.978 501.019C545.347 503.131 539.74 504.187 533.159 504.187H517.194V531H496.231V450.562H533.159ZM529.869 488.466C534.256 488.466 537.547 487.572 539.74 485.784C542.015 483.916 543.153 481.112 543.153 477.375C543.153 473.637 542.015 470.875 539.74 469.087C537.547 467.219 534.256 466.284 529.869 466.284H517.194V488.466H529.869ZM598.602 514.791H638.943V531H577.64V450.562H598.602V514.791ZM650.955 531V450.562H713.599V466.772H671.918V483.103H705.068V498.337H671.918V514.791H715.183V531H650.955Z" fill="#27AAE1"/>
<path d="M334.47 520.766C341.051 520.766 346.657 521.822 351.288 523.934C355.92 526.047 359.454 529.094 361.891 533.075C364.329 537.056 365.548 541.891 365.548 547.578C365.548 553.266 364.329 558.1 361.891 562.081C359.454 566.062 355.92 569.109 351.288 571.222C346.657 573.334 341.051 574.391 334.47 574.391H318.504V601.203H297.541V520.766H334.47ZM331.179 558.669C335.566 558.669 338.857 557.775 341.051 555.987C343.326 554.119 344.463 551.316 344.463 547.578C344.463 543.841 343.326 541.078 341.051 539.291C338.857 537.422 335.566 536.487 331.179 536.487H318.504V558.669H331.179ZM449.272 520.766V568.419C449.272 579.794 446.225 588.325 440.131 594.012C434.119 599.619 425.181 602.422 413.319 602.422C401.538 602.422 392.6 599.619 386.506 594.012C380.413 588.325 377.366 579.794 377.366 568.419V520.766H398.45V568.784C398.45 574.553 399.669 578.859 402.106 581.703C404.625 584.547 408.363 585.969 413.319 585.969C418.356 585.969 422.094 584.547 424.531 581.703C427.05 578.859 428.309 574.553 428.309 568.784V520.766H449.272ZM503.867 520.766C513.455 520.766 520.889 523.041 526.17 527.591C531.533 532.059 534.214 538.031 534.214 545.506C534.214 553.712 531.573 559.969 526.292 564.275C521.011 568.581 513.577 570.734 503.989 570.734L502.039 571.831H486.073V601.203H465.477V520.766H503.867ZM500.942 556.962C505.005 556.962 508.052 556.15 510.083 554.525C512.114 552.9 513.13 550.3 513.13 546.725C513.13 543.231 512.114 540.672 510.083 539.047C508.052 537.422 505.005 536.609 500.942 536.609H486.073V556.962H500.942ZM513.252 561.35L538.967 601.203H515.811L495.214 565.981L513.252 561.35ZM586.432 520.766C593.013 520.766 598.619 521.822 603.251 523.934C607.882 526.047 611.416 529.094 613.854 533.075C616.291 537.056 617.51 541.891 617.51 547.578C617.51 553.266 616.291 558.1 613.854 562.081C611.416 566.062 607.882 569.109 603.251 571.222C598.619 573.334 593.013 574.391 586.432 574.391H570.466V601.203H549.504V520.766H586.432ZM583.141 558.669C587.529 558.669 590.819 557.775 593.013 555.987C595.288 554.119 596.426 551.316 596.426 547.578C596.426 543.841 595.288 541.078 593.013 539.291C590.819 537.422 587.529 536.487 583.141 536.487H570.466V558.669H583.141ZM666.987 519.547C675.112 519.547 682.1 521.212 687.95 524.544C693.881 527.794 698.431 532.506 701.6 538.681C704.769 544.856 706.353 552.291 706.353 560.984C706.353 569.678 704.769 577.112 701.6 583.287C698.431 589.462 693.881 594.216 687.95 597.547C682.1 600.797 675.112 602.422 666.987 602.422C658.862 602.422 651.834 600.797 645.903 597.547C639.972 594.216 635.422 589.462 632.253 583.287C629.084 577.112 627.5 569.678 627.5 560.984C627.5 552.291 629.084 544.856 632.253 538.681C635.422 532.506 639.972 527.794 645.903 524.544C651.834 521.212 658.862 519.547 666.987 519.547ZM666.987 536C663.087 536 659.797 536.934 657.116 538.803C654.434 540.672 652.403 543.475 651.022 547.212C649.641 550.869 648.95 555.459 648.95 560.984C648.95 566.428 649.641 571.019 651.022 574.756C652.403 578.494 654.434 581.297 657.116 583.166C659.797 585.034 663.087 585.969 666.987 585.969C670.887 585.969 674.137 585.034 676.737 583.166C679.419 581.297 681.45 578.494 682.831 574.756C684.212 571.019 684.903 566.428 684.903 560.984C684.903 555.459 684.212 550.869 682.831 547.212C681.45 543.475 679.419 540.672 676.737 538.803C674.137 536.934 670.887 536 666.987 536ZM751.501 519.547C758.976 519.547 765.557 520.725 771.245 523.081C777.014 525.356 782.01 528.728 786.235 533.197L776.12 546.725C772.626 543.069 768.848 540.347 764.785 538.559C760.804 536.691 756.254 535.756 751.135 535.756C748.129 535.756 745.692 536.081 743.823 536.731C741.954 537.381 740.614 538.275 739.801 539.412C738.989 540.55 738.582 541.85 738.582 543.312C738.582 545.019 739.354 546.481 740.898 547.7C742.523 548.837 745.123 549.812 748.698 550.625L762.226 553.672C770.27 555.541 776.16 558.262 779.898 561.837C783.635 565.412 785.504 570.166 785.504 576.097C785.504 581.784 784.042 586.619 781.117 590.6C778.192 594.5 774.17 597.466 769.051 599.497C763.932 601.447 758.082 602.422 751.501 602.422C746.139 602.422 741.02 601.853 736.145 600.716C731.27 599.497 726.882 597.791 722.982 595.597C719.082 593.403 715.792 590.884 713.11 588.041L723.226 574.025C725.257 576.381 727.735 578.494 730.66 580.362C733.667 582.15 736.917 583.572 740.41 584.628C743.985 585.684 747.601 586.212 751.257 586.212C754.101 586.212 756.457 585.928 758.326 585.359C760.276 584.791 761.698 583.937 762.592 582.8C763.485 581.662 763.932 580.322 763.932 578.778C763.932 577.072 763.323 575.65 762.104 574.512C760.885 573.294 758.57 572.278 755.157 571.466L740.289 568.175C735.739 567.119 731.676 565.737 728.101 564.031C724.607 562.244 721.845 559.887 719.814 556.962C717.782 553.956 716.767 550.219 716.767 545.75C716.767 540.712 718.148 536.244 720.91 532.344C723.673 528.362 727.654 525.234 732.854 522.959C738.054 520.684 744.27 519.547 751.501 519.547ZM798.61 601.203V520.766H861.253V536.975H819.572V553.306H852.722V568.541H819.572V584.994H862.838V601.203H798.61Z" fill="#EA088B"/>
<path d="M195.897 666.523V586.086H258.541V602.295H216.859V618.627H250.009V633.861H216.859V650.314H260.125V666.523H195.897ZM365.895 586.086V666.523H347.37V629.595L347.98 604.855H347.736L327.87 666.523H310.93L291.064 604.855H290.82L291.43 629.595V666.523H272.783V586.086H302.642L315.317 627.036L319.827 644.098H320.07L324.702 627.158L337.255 586.086H365.895ZM419.783 584.867C427.908 584.867 434.896 586.533 440.746 589.864C446.677 593.114 451.227 597.827 454.396 604.002C457.564 610.177 459.149 617.611 459.149 626.305C459.149 634.998 457.564 642.433 454.396 648.608C451.227 654.783 446.677 659.536 440.746 662.867C434.896 666.117 427.908 667.742 419.783 667.742C411.658 667.742 404.63 666.117 398.699 662.867C392.768 659.536 388.218 654.783 385.049 648.608C381.88 642.433 380.296 634.998 380.296 626.305C380.296 617.611 381.88 610.177 385.049 604.002C388.218 597.827 392.768 593.114 398.699 589.864C404.63 586.533 411.658 584.867 419.783 584.867ZM419.783 601.32C415.883 601.32 412.593 602.255 409.911 604.123C407.23 605.992 405.199 608.795 403.818 612.533C402.436 616.189 401.746 620.78 401.746 626.305C401.746 631.748 402.436 636.339 403.818 640.077C405.199 643.814 407.23 646.617 409.911 648.486C412.593 650.355 415.883 651.289 419.783 651.289C423.683 651.289 426.933 650.355 429.533 648.486C432.214 646.617 434.246 643.814 435.627 640.077C437.008 636.339 437.699 631.748 437.699 626.305C437.699 620.78 437.008 616.189 435.627 612.533C434.246 608.795 432.214 605.992 429.533 604.123C426.933 602.255 423.683 601.32 419.783 601.32ZM537.875 586.086V602.295H511.672V666.523H490.71V602.295H464.385V586.086H537.875ZM570.821 586.086V666.523H549.858V586.086H570.821ZM624.733 584.867C632.858 584.867 639.846 586.533 645.696 589.864C651.627 593.114 656.177 597.827 659.346 604.002C662.514 610.177 664.099 617.611 664.099 626.305C664.099 634.998 662.514 642.433 659.346 648.608C656.177 654.783 651.627 659.536 645.696 662.867C639.846 666.117 632.858 667.742 624.733 667.742C616.608 667.742 609.58 666.117 603.649 662.867C597.718 659.536 593.168 654.783 589.999 648.608C586.83 642.433 585.246 634.998 585.246 626.305C585.246 617.611 586.83 610.177 589.999 604.002C593.168 597.827 597.718 593.114 603.649 589.864C609.58 586.533 616.608 584.867 624.733 584.867ZM624.733 601.32C620.833 601.32 617.543 602.255 614.861 604.123C612.18 605.992 610.149 608.795 608.768 612.533C607.386 616.189 606.696 620.78 606.696 626.305C606.696 631.748 607.386 636.339 608.768 640.077C610.149 643.814 612.18 646.617 614.861 648.486C617.543 650.355 620.833 651.289 624.733 651.289C628.633 651.289 631.883 650.355 634.483 648.486C637.164 646.617 639.196 643.814 640.577 640.077C641.958 636.339 642.649 631.748 642.649 626.305C642.649 620.78 641.958 616.189 640.577 612.533C639.196 608.795 637.164 605.992 634.483 604.123C631.883 602.255 628.633 601.32 624.733 601.32ZM751.033 586.086V666.523H727.755L702.77 623.014L696.677 611.07H696.555L697.042 625.939V666.523H678.517V586.086H701.795L726.78 629.595L732.873 641.539H732.995L732.508 626.67V586.086H751.033Z" fill="white"/>
<path d="M757.741 660.922V580.484H796.863C806.775 580.566 814.088 582.475 818.8 586.212C823.513 589.869 825.869 595.191 825.869 602.178C825.869 606.728 824.528 610.669 821.847 614C819.166 617.25 815.063 619.322 809.538 620.216V620.337C815.713 621.15 820.303 623.303 823.309 626.797C826.397 630.209 827.941 634.353 827.941 639.228C827.941 646.134 825.503 651.497 820.628 655.316C815.753 659.053 808.441 660.922 798.691 660.922H757.741ZM777.972 646.175H795.156C798.975 646.175 801.819 645.403 803.688 643.859C805.556 642.316 806.491 640.081 806.491 637.156C806.491 634.312 805.556 632.159 803.688 630.697C801.819 629.153 798.975 628.381 795.156 628.381H777.972V646.175ZM777.972 613.391H793.206C800.681 613.391 804.419 610.466 804.419 604.616C804.419 598.766 800.681 595.841 793.206 595.841H777.972V613.391ZM877.129 579.266C885.254 579.266 892.241 580.931 898.091 584.262C904.022 587.512 908.572 592.225 911.741 598.4C914.91 604.575 916.494 612.009 916.494 620.703C916.494 629.397 914.91 636.831 911.741 643.006C908.572 649.181 904.022 653.934 898.091 657.266C892.241 660.516 885.254 662.141 877.129 662.141C869.004 662.141 861.976 660.516 856.044 657.266C850.113 653.934 845.563 649.181 842.394 643.006C839.225 636.831 837.641 629.397 837.641 620.703C837.641 612.009 839.225 604.575 842.394 598.4C845.563 592.225 850.113 587.512 856.044 584.262C861.976 580.931 869.004 579.266 877.129 579.266ZM877.129 595.719C873.229 595.719 869.938 596.653 867.257 598.522C864.576 600.391 862.544 603.194 861.163 606.931C859.782 610.587 859.091 615.178 859.091 620.703C859.091 626.147 859.782 630.737 861.163 634.475C862.544 638.212 864.576 641.016 867.257 642.884C869.938 644.753 873.229 645.687 877.129 645.687C881.029 645.687 884.279 644.753 886.879 642.884C889.56 641.016 891.591 638.212 892.972 634.475C894.354 630.737 895.044 626.147 895.044 620.703C895.044 615.178 894.354 610.587 892.972 606.931C891.591 603.194 889.56 600.391 886.879 598.522C884.279 596.653 881.029 595.719 877.129 595.719ZM951.875 644.712H992.216V660.922H930.913V580.484H951.875V644.712ZM1038.35 580.484C1050.95 580.484 1060.57 583.978 1067.24 590.966C1073.98 597.953 1077.35 607.866 1077.35 620.703C1077.35 633.541 1073.98 643.453 1067.24 650.441C1060.57 657.428 1050.95 660.922 1038.35 660.922H1004.23V580.484H1038.35ZM1036.28 645.078C1043.11 645.078 1048.06 643.047 1051.15 638.984C1054.32 634.841 1055.9 628.747 1055.9 620.703C1055.9 612.659 1054.32 606.606 1051.15 602.544C1048.06 598.4 1043.11 596.328 1036.28 596.328H1025.19V645.078H1036.28Z" fill="white"/>
<path d="M748.114 668.35H706.555V685.412H739.705V701.622H706.555V732.578H685.592V652.141H748.114V668.35ZM798.607 652.141C808.195 652.141 815.629 654.416 820.911 658.966C826.273 663.434 828.954 669.406 828.954 676.881C828.954 685.087 826.314 691.344 821.032 695.65C815.751 699.956 808.317 702.109 798.729 702.109L796.779 703.206H780.814V732.578H760.217V652.141H798.607ZM795.682 688.337C799.745 688.337 802.792 687.525 804.823 685.9C806.854 684.275 807.87 681.675 807.87 678.1C807.87 674.606 806.854 672.047 804.823 670.422C802.792 668.797 799.745 667.984 795.682 667.984H780.814V688.337H795.682ZM807.992 692.725L833.707 732.578H810.551L789.954 697.356L807.992 692.725ZM844.244 732.578V652.141H906.888V668.35H865.206V684.681H898.356V699.916H865.206V716.369H908.472V732.578H844.244ZM952.574 650.922C960.049 650.922 966.63 652.1 972.317 654.456C978.086 656.731 983.083 660.103 987.308 664.572L977.192 678.1C973.699 674.444 969.921 671.722 965.858 669.934C961.877 668.066 957.327 667.131 952.208 667.131C949.202 667.131 946.764 667.456 944.896 668.106C943.027 668.756 941.686 669.65 940.874 670.787C940.061 671.925 939.655 673.225 939.655 674.687C939.655 676.394 940.427 677.856 941.971 679.075C943.596 680.212 946.196 681.187 949.771 682L963.299 685.047C971.342 686.916 977.233 689.637 980.971 693.212C984.708 696.787 986.577 701.541 986.577 707.472C986.577 713.159 985.114 717.994 982.189 721.975C979.264 725.875 975.242 728.841 970.124 730.872C965.005 732.822 959.155 733.797 952.574 733.797C947.211 733.797 942.092 733.228 937.217 732.091C932.342 730.872 927.955 729.166 924.055 726.972C920.155 724.778 916.864 722.259 914.183 719.416L924.299 705.4C926.33 707.756 928.808 709.869 931.733 711.737C934.739 713.525 937.989 714.947 941.483 716.003C945.058 717.059 948.674 717.587 952.33 717.587C955.174 717.587 957.53 717.303 959.399 716.734C961.349 716.166 962.771 715.312 963.664 714.175C964.558 713.037 965.005 711.697 965.005 710.153C965.005 708.447 964.396 707.025 963.177 705.887C961.958 704.669 959.642 703.653 956.23 702.841L941.361 699.55C936.811 698.494 932.749 697.112 929.174 695.406C925.68 693.619 922.917 691.262 920.886 688.337C918.855 685.331 917.839 681.594 917.839 677.125C917.839 672.087 919.221 667.619 921.983 663.719C924.746 659.737 928.727 656.609 933.927 654.334C939.127 652.059 945.342 650.922 952.574 650.922ZM1072.32 652.141V732.578H1051.36V652.141H1072.32ZM1020.64 652.141V732.578H999.682V652.141H1020.64ZM1062.57 683.95V700.159H1009.92V683.95H1062.57Z" fill="white"/>
<path d="M547.995 806.559C546.451 812.166 543.973 816.797 540.56 820.453C537.148 824.028 533.085 826.669 528.373 828.375C523.66 830 518.46 830.813 512.773 830.813C504.648 830.813 497.62 829.187 491.688 825.937C485.757 822.606 481.207 817.853 478.038 811.678C474.87 805.503 473.285 798.069 473.285 789.375C473.285 780.681 474.87 773.247 478.038 767.072C481.207 760.897 485.757 756.184 491.688 752.934C497.62 749.603 504.607 747.937 512.651 747.937C518.257 747.937 523.416 748.75 528.129 750.375C532.841 751.919 536.823 754.316 540.073 757.566C543.323 760.816 545.638 765 547.02 770.119L528.616 777.553C527.479 772.516 525.61 769.062 523.01 767.194C520.491 765.325 517.282 764.391 513.382 764.391C509.563 764.391 506.232 765.325 503.388 767.194C500.626 769.062 498.473 771.866 496.929 775.603C495.466 779.259 494.735 783.85 494.735 789.375C494.735 794.819 495.426 799.409 496.807 803.147C498.188 806.884 500.26 809.687 503.023 811.556C505.866 813.425 509.36 814.359 513.504 814.359C517.404 814.359 520.695 813.303 523.376 811.191C526.138 808.997 528.007 805.666 528.982 801.197L547.995 806.559ZM598.044 749.156C607.632 749.156 615.066 751.431 620.347 755.981C625.71 760.45 628.391 766.422 628.391 773.897C628.391 782.103 625.75 788.359 620.469 792.666C615.188 796.972 607.754 799.125 598.166 799.125L596.216 800.222H580.25V829.594H559.654V749.156H598.044ZM595.119 785.353C599.182 785.353 602.229 784.541 604.26 782.916C606.291 781.291 607.307 778.691 607.307 775.116C607.307 771.622 606.291 769.062 604.26 767.437C602.229 765.812 599.182 765 595.119 765H580.25V785.353H595.119ZM607.429 789.741L633.144 829.594H609.988L589.391 794.372L607.429 789.741ZM716.806 829.594H695.234L689.628 811.434H662.084L656.356 829.594H635.271L663.546 749.156H688.653L716.806 829.594ZM665.984 797.175H685.728L675.856 764.634L665.984 797.175ZM738.226 820.819L734.57 813.75H790.754V829.594H721.773V814.481L773.082 757.931L776.739 765H722.626V749.156H789.292V764.269L738.226 820.819ZM873.36 749.156L844.963 800.222V829.594H824V800.222L795.604 749.156H817.297L828.632 771.216L834.604 784.622L840.697 771.216L852.032 749.156H873.36Z" fill="white"/>
<path d="M316.552 676.516C324.027 676.516 330.608 677.694 336.295 680.05C342.064 682.325 347.061 685.697 351.286 690.166L341.17 703.694C337.677 700.037 333.898 697.316 329.836 695.528C325.855 693.659 321.305 692.725 316.186 692.725C313.18 692.725 310.742 693.05 308.873 693.7C307.005 694.35 305.664 695.244 304.852 696.381C304.039 697.519 303.633 698.819 303.633 700.281C303.633 701.987 304.405 703.45 305.948 704.669C307.573 705.806 310.173 706.781 313.748 707.594L327.277 710.641C335.32 712.509 341.211 715.231 344.948 718.806C348.686 722.381 350.555 727.134 350.555 733.066C350.555 738.753 349.092 743.587 346.167 747.569C343.242 751.469 339.22 754.434 334.102 756.466C328.983 758.416 323.133 759.391 316.552 759.391C311.189 759.391 306.07 758.822 301.195 757.684C296.32 756.466 291.933 754.759 288.033 752.566C284.133 750.372 280.842 747.853 278.161 745.009L288.277 730.994C290.308 733.35 292.786 735.462 295.711 737.331C298.717 739.119 301.967 740.541 305.461 741.597C309.036 742.653 312.652 743.181 316.308 743.181C319.152 743.181 321.508 742.897 323.377 742.328C325.327 741.759 326.748 740.906 327.642 739.769C328.536 738.631 328.983 737.291 328.983 735.747C328.983 734.041 328.373 732.619 327.155 731.481C325.936 730.262 323.62 729.247 320.208 728.434L305.339 725.144C300.789 724.087 296.727 722.706 293.152 721C289.658 719.212 286.895 716.856 284.864 713.931C282.833 710.925 281.817 707.187 281.817 702.719C281.817 697.681 283.198 693.212 285.961 689.312C288.723 685.331 292.705 682.203 297.905 679.928C303.105 677.653 309.32 676.516 316.552 676.516ZM429.753 677.734V693.944H403.55V758.172H382.588V693.944H356.263V677.734H429.753ZM474.479 676.516C482.604 676.516 489.591 678.181 495.441 681.512C501.372 684.762 505.922 689.475 509.091 695.65C512.26 701.825 513.844 709.259 513.844 717.953C513.844 726.647 512.26 734.081 509.091 740.256C505.922 746.431 501.372 751.184 495.441 754.516C489.591 757.766 482.604 759.391 474.479 759.391C466.354 759.391 459.326 757.766 453.394 754.516C447.463 751.184 442.913 746.431 439.744 740.256C436.576 734.081 434.991 726.647 434.991 717.953C434.991 709.259 436.576 701.825 439.744 695.65C442.913 689.475 447.463 684.762 453.394 681.512C459.326 678.181 466.354 676.516 474.479 676.516ZM474.479 692.969C470.579 692.969 467.288 693.903 464.607 695.772C461.926 697.641 459.894 700.444 458.513 704.181C457.132 707.837 456.441 712.428 456.441 717.953C456.441 723.397 457.132 727.987 458.513 731.725C459.894 735.462 461.926 738.266 464.607 740.134C467.288 742.003 470.579 742.937 474.479 742.937C478.379 742.937 481.629 742.003 484.229 740.134C486.91 738.266 488.941 735.462 490.322 731.725C491.704 727.987 492.394 723.397 492.394 717.953C492.394 712.428 491.704 707.837 490.322 704.181C488.941 700.444 486.91 697.641 484.229 695.772C481.629 693.903 478.379 692.969 474.479 692.969ZM566.653 677.734C576.241 677.734 583.675 680.009 588.957 684.559C594.319 689.028 597 695 597 702.475C597 710.681 594.36 716.937 589.078 721.244C583.797 725.55 576.363 727.703 566.775 727.703L564.825 728.8H548.86V758.172H528.263V677.734H566.653ZM563.728 713.931C567.791 713.931 570.838 713.119 572.869 711.494C574.9 709.869 575.916 707.269 575.916 703.694C575.916 700.2 574.9 697.641 572.869 696.016C570.838 694.391 567.791 693.578 563.728 693.578H548.86V713.931H563.728ZM576.038 718.319L601.753 758.172H578.597L558 722.95L576.038 718.319ZM677.366 677.734L648.969 728.8V758.172H628.007V728.8L599.61 677.734H621.304L632.638 699.794L638.61 713.2L644.704 699.794L656.038 677.734H677.366Z" fill="white"/>
<path d="M893.389 723.562C902.977 723.562 910.411 725.837 915.692 730.387C921.055 734.856 923.736 740.828 923.736 748.303C923.736 756.509 921.095 762.766 915.814 767.072C910.533 771.378 903.098 773.531 893.511 773.531L891.561 774.628H875.595V804H854.998V723.562H893.389ZM890.464 759.759C894.527 759.759 897.573 758.947 899.605 757.322C901.636 755.697 902.652 753.097 902.652 749.522C902.652 746.028 901.636 743.469 899.605 741.844C897.573 740.219 894.527 739.406 890.464 739.406H875.595V759.759H890.464ZM902.773 764.147L928.489 804H905.333L884.736 768.778L902.773 764.147ZM939.026 804V723.562H1001.67V739.772H959.988V756.103H993.138V771.337H959.988V787.791H1003.25V804H939.026ZM1089.04 804H1067.46L1061.86 785.841H1034.31L1028.59 804H1007.5L1035.78 723.562H1060.88L1089.04 804ZM1038.21 771.581H1057.96L1048.09 739.041L1038.21 771.581ZM1119.35 787.791H1159.69V804H1098.39V723.562H1119.35V787.791Z" fill="#F15A29"/>
<path d="M411.859 820.82V901.258H390.897V820.82H411.859ZM468.088 820.82C477.675 820.82 485.109 823.095 490.391 827.645C495.753 832.114 498.434 838.086 498.434 845.561C498.434 853.767 495.794 860.023 490.513 864.33C485.231 868.636 477.797 870.789 468.209 870.789L466.259 871.886H450.294V901.258H429.697V820.82H468.088ZM465.163 857.017C469.225 857.017 472.272 856.205 474.303 854.58C476.334 852.955 477.35 850.355 477.35 846.78C477.35 843.286 476.334 840.727 474.303 839.102C472.272 837.477 469.225 836.664 465.163 836.664H450.294V857.017H465.163ZM477.472 861.405L503.188 901.258H480.031L459.434 866.036L477.472 861.405ZM552.115 820.82C561.702 820.82 569.137 823.095 574.418 827.645C579.78 832.114 582.462 838.086 582.462 845.561C582.462 853.767 579.821 860.023 574.54 864.33C569.258 868.636 561.824 870.789 552.237 870.789L550.287 871.886H534.321V901.258H513.724V820.82H552.115ZM549.19 857.017C553.252 857.017 556.299 856.205 558.33 854.58C560.362 852.955 561.377 850.355 561.377 846.78C561.377 843.286 560.362 840.727 558.33 839.102C556.299 837.477 553.252 836.664 549.19 836.664H534.321V857.017H549.19ZM561.499 861.405L587.215 901.258H564.058L543.462 866.036L561.499 861.405ZM670.876 901.258H649.304L643.698 883.098H616.154L610.426 901.258H589.342L617.617 820.82H642.723L670.876 901.258ZM620.054 868.839H639.798L629.926 836.298L620.054 868.839ZM737.755 820.82V837.03H711.552V901.258H690.589V837.03H664.264V820.82H737.755ZM770.7 820.82V901.258H749.738V820.82H770.7ZM824.613 819.602C832.738 819.602 839.725 821.267 845.575 824.598C851.507 827.848 856.057 832.561 859.225 838.736C862.394 844.911 863.979 852.345 863.979 861.039C863.979 869.733 862.394 877.167 859.225 883.342C856.057 889.517 851.507 894.27 845.575 897.602C839.725 900.852 832.738 902.477 824.613 902.477C816.488 902.477 809.46 900.852 803.529 897.602C797.597 894.27 793.047 889.517 789.879 883.342C786.71 877.167 785.125 869.733 785.125 861.039C785.125 852.345 786.71 844.911 789.879 838.736C793.047 832.561 797.597 827.848 803.529 824.598C809.46 821.267 816.488 819.602 824.613 819.602ZM824.613 836.055C820.713 836.055 817.422 836.989 814.741 838.858C812.06 840.727 810.029 843.53 808.647 847.267C807.266 850.923 806.575 855.514 806.575 861.039C806.575 866.483 807.266 871.073 808.647 874.811C810.029 878.548 812.06 881.352 814.741 883.22C817.422 885.089 820.713 886.023 824.613 886.023C828.513 886.023 831.763 885.089 834.363 883.22C837.044 881.352 839.075 878.548 840.457 874.811C841.838 871.073 842.529 866.483 842.529 861.039C842.529 855.514 841.838 850.923 840.457 847.267C839.075 843.53 837.044 840.727 834.363 838.858C831.763 836.989 828.513 836.055 824.613 836.055ZM950.913 820.82V901.258H927.634L902.65 857.748L896.556 845.805H896.434L896.922 860.673V901.258H878.397V820.82H901.675L926.659 864.33L932.753 876.273H932.875L932.388 861.405V820.82H950.913ZM1041.86 901.258H1020.29L1014.68 883.098H987.135L981.407 901.258H960.323L988.598 820.82H1013.7L1041.86 901.258ZM991.035 868.839H1010.78L1000.91 836.298L991.035 868.839ZM1072.17 885.048H1112.52V901.258H1051.21V820.82H1072.17V885.048Z" fill="white"/>
</svg>
